<?xml version="1.0" encoding="UTF-8"?>
<svg xmlns="http://www.w3.org/2000/svg" width="220" height="160" viewBox="0 0 220 160" fill="none">
  <rect width="220" height="160" fill="white"></rect>
  <path d="M76.57 103.83V114.26H75.22V112.2C74.79 112.9 74.23 113.44 73.54 113.8C72.85 114.17 72.06 114.35 71.19 114.35C70.21 114.35 69.33 114.12 68.53 113.68C67.74 113.23 67.12 112.6 66.67 111.8C66.22 111 66 110.07 66 109.04C66 108.01 66.22 107.09 66.68 106.29C67.13 105.48 67.75 104.86 68.54 104.41C69.34 103.97 70.22 103.75 71.2 103.75C72.04 103.75 72.81 103.93 73.49 104.27C74.17 104.62 74.73 105.13 75.17 105.81V103.83H76.57ZM73.29 112.6C73.87 112.26 74.34 111.79 74.68 111.16C75.01 110.54 75.18 109.83 75.18 109.04C75.18 108.25 75.01 107.55 74.68 106.92C74.34 106.29 73.87 105.82 73.29 105.48C72.7 105.14 72.04 104.97 71.32 104.97C70.58 104.97 69.91 105.14 69.33 105.48C68.74 105.81 68.28 106.29 67.94 106.92C67.6 107.54 67.44 108.25 67.44 109.04C67.44 109.84 67.6 110.54 67.94 111.16C68.28 111.79 68.74 112.26 69.33 112.6C69.92 112.94 70.58 113.11 71.32 113.11C72.04 113.11 72.7 112.94 73.29 112.6Z" fill="black"></path>
  <path d="M81.19 99.55H82.6V114.26H81.19V99.55Z" fill="black"></path>
  <path d="M101.13 104.42C101.93 104.86 102.55 105.49 103 106.3C103.45 107.1 103.67 108.02 103.67 109.05C103.67 110.08 103.45 111 103 111.81C102.55 112.62 101.93 113.24 101.13 113.69C100.34 114.14 99.45 114.36 98.48 114.36C97.61 114.36 96.83 114.18 96.13 113.81C95.44 113.44 94.88 112.91 94.46 112.21V114.27H93.1V99.55H94.51V105.81C94.95 105.13 95.51 104.62 96.18 104.27C96.86 103.92 97.63 103.75 98.47 103.75C99.46 103.75 100.34 103.98 101.13 104.42ZM100.36 112.6C100.96 112.26 101.43 111.79 101.76 111.16C102.1 110.54 102.27 109.83 102.27 109.04C102.27 108.25 102.1 107.55 101.76 106.92C101.43 106.29 100.96 105.82 100.36 105.48C99.77 105.14 99.1 104.97 98.38 104.97C97.64 104.97 96.98 105.14 96.39 105.48C95.8 105.81 95.34 106.29 95 106.92C94.66 107.54 94.49 108.25 94.49 109.04C94.49 109.84 94.66 110.54 95 111.16C95.34 111.79 95.8 112.26 96.39 112.6C96.98 112.94 97.64 113.11 98.38 113.11C99.1 113.11 99.77 112.94 100.36 112.6Z" fill="black"></path>
  <path d="M116.76 103.83V114.26H115.41V112.2C114.99 112.9 114.43 113.44 113.74 113.8C113.05 114.17 112.26 114.35 111.39 114.35C110.41 114.35 109.52 114.12 108.73 113.68C107.93 113.23 107.32 112.6 106.87 111.8C106.42 110.99 106.19 110.07 106.19 109.04C106.19 108.01 106.42 107.09 106.87 106.29C107.32 105.48 107.93 104.86 108.73 104.41C109.52 103.97 110.41 103.75 111.39 103.75C112.24 103.75 113 103.93 113.68 104.27C114.36 104.62 114.92 105.13 115.36 105.81V103.83H116.76ZM113.48 112.6C114.07 112.26 114.54 111.79 114.87 111.16C115.2 110.54 115.38 109.83 115.38 109.04C115.38 108.25 115.21 107.55 114.87 106.92C114.54 106.29 114.07 105.82 113.48 105.48C112.89 105.14 112.24 104.97 111.51 104.97C110.77 104.97 110.1 105.14 109.52 105.48C108.93 105.81 108.47 106.29 108.13 106.92C107.79 107.54 107.63 108.25 107.63 109.04C107.63 109.84 107.79 110.54 108.13 111.16C108.47 111.79 108.93 112.26 109.52 112.6C110.11 112.94 110.77 113.11 111.51 113.11C112.23 113.11 112.89 112.94 113.48 112.6Z" fill="black"></path>
  <path d="M124.2 104.29C124.86 103.94 125.66 103.76 126.63 103.76V105.12L126.29 105.1C125.19 105.1 124.34 105.44 123.71 106.11C123.09 106.79 122.77 107.73 122.77 108.95V114.26H121.36V103.83H122.71V105.87C123.06 105.17 123.55 104.64 124.2 104.29Z" fill="black"></path>
  <path d="M139.28 103.83V114.26H137.94V112.2C137.51 112.9 136.95 113.44 136.26 113.8C135.57 114.17 134.78 114.35 133.91 114.35C132.93 114.35 132.05 114.12 131.25 113.68C130.45 113.23 129.84 112.6 129.38 111.8C128.93 110.99 128.71 110.07 128.71 109.04C128.71 108.01 128.94 107.09 129.38 106.29C129.83 105.48 130.45 104.86 131.25 104.41C132.04 103.97 132.93 103.75 133.91 103.75C134.76 103.75 135.52 103.93 136.2 104.27C136.88 104.62 137.44 105.13 137.88 105.81V103.83H139.28ZM136 112.6C136.59 112.26 137.05 111.79 137.39 111.16C137.73 110.54 137.89 109.83 137.89 109.04C137.89 108.25 137.72 107.55 137.39 106.92C137.05 106.29 136.59 105.82 136 105.48C135.41 105.14 134.76 104.97 134.03 104.97C133.29 104.97 132.62 105.14 132.04 105.48C131.45 105.81 130.99 106.29 130.65 106.92C130.31 107.54 130.15 108.25 130.15 109.04C130.15 109.84 130.31 110.54 130.65 111.16C130.99 111.79 131.45 112.26 132.04 112.6C132.63 112.94 133.29 113.11 134.03 113.11C134.76 113.11 135.41 112.94 136 112.6Z" fill="black"></path>
  <path d="M146.73 104.29C147.38 103.94 148.2 103.76 149.16 103.76V105.12L148.83 105.1C147.73 105.1 146.87 105.44 146.25 106.11C145.63 106.79 145.31 107.73 145.31 108.95V114.26H143.91V103.83H145.25V105.87C145.58 105.17 146.07 104.64 146.73 104.29Z" fill="black"></path>
  <path d="M152.37 101.25C152.17 101.05 152.08 100.81 152.08 100.54C152.08 100.28 152.18 100.05 152.37 99.85C152.57 99.65 152.82 99.55 153.11 99.55C153.4 99.55 153.65 99.64 153.84 99.84C154.04 100.03 154.14 100.26 154.14 100.52C154.14 100.81 154.04 101.05 153.84 101.25C153.64 101.45 153.4 101.55 153.11 101.55C152.81 101.55 152.57 101.46 152.37 101.25ZM152.39 103.83H153.8V114.26H152.39V103.83Z" fill="black"></path>
  <path d="M97.4 122.22V129.95H96.45V129.07C96.22 129.38 95.94 129.61 95.6 129.77C95.26 129.93 94.89 130 94.47 130C93.94 130 93.46 129.89 93.03 129.65C92.61 129.41 92.27 129.08 92.04 128.65C91.8 128.22 91.68 127.73 91.68 127.18C91.68 126.63 91.8 126.14 92.04 125.71C92.28 125.28 92.61 124.96 93.03 124.72C93.46 124.49 93.94 124.36 94.47 124.36C94.87 124.36 95.23 124.43 95.56 124.58C95.89 124.73 96.17 124.95 96.39 125.24V122.2H97.4V122.22ZM95.5 128.89C95.78 128.73 96.01 128.5 96.17 128.2C96.33 127.91 96.41 127.57 96.41 127.18C96.41 126.8 96.33 126.46 96.17 126.17C96.01 125.87 95.79 125.65 95.5 125.49C95.22 125.33 94.9 125.24 94.55 125.24C94.2 125.24 93.88 125.33 93.6 125.49C93.32 125.64 93.09 125.87 92.93 126.17C92.77 126.46 92.69 126.8 92.69 127.18C92.69 127.57 92.77 127.9 92.93 128.2C93.1 128.5 93.32 128.73 93.6 128.89C93.88 129.05 94.2 129.13 94.55 129.13C94.9 129.13 95.22 129.05 95.5 128.89Z" fill="black"></path>
  <path d="M105.99 124.42V129.94H105.05V129.1C104.85 129.39 104.58 129.61 104.25 129.76C103.92 129.92 103.56 129.99 103.17 129.99C102.43 129.99 101.86 129.79 101.43 129.38C101.01 128.98 100.79 128.38 100.79 127.58V124.41H101.79V127.47C101.79 128.01 101.92 128.41 102.18 128.69C102.44 128.96 102.8 129.1 103.28 129.1C103.81 129.1 104.22 128.95 104.53 128.62C104.84 128.3 104.99 127.85 104.99 127.27V124.42H105.99Z" fill="black"></path>
  <path d="M113.82 124.73C114.24 124.96 114.57 125.29 114.81 125.72C115.05 126.15 115.17 126.63 115.17 127.19C115.17 127.75 115.05 128.24 114.81 128.66C114.57 129.09 114.24 129.42 113.82 129.66C113.39 129.9 112.92 130.01 112.38 130.01C111.97 130.01 111.6 129.93 111.26 129.78C110.92 129.62 110.63 129.38 110.42 129.08V129.96H109.46V122.23H110.47V125.27C110.69 124.98 110.97 124.76 111.3 124.61C111.64 124.46 112 124.39 112.39 124.39C112.92 124.37 113.4 124.49 113.82 124.73ZM113.25 128.89C113.53 128.73 113.75 128.5 113.92 128.2C114.08 127.91 114.16 127.57 114.16 127.18C114.16 126.8 114.08 126.46 113.92 126.17C113.75 125.87 113.53 125.65 113.25 125.49C112.97 125.33 112.65 125.24 112.3 125.24C111.95 125.24 111.64 125.33 111.35 125.49C111.06 125.64 110.84 125.87 110.68 126.17C110.53 126.46 110.44 126.8 110.44 127.18C110.44 127.57 110.52 127.9 110.68 128.2C110.84 128.5 111.06 128.73 111.35 128.89C111.63 129.05 111.95 129.13 112.3 129.13C112.65 129.13 112.97 129.05 113.25 128.89Z" fill="black"></path>
  <path d="M123.32 124.42V129.94H122.36V129.06C122.14 129.37 121.86 129.6 121.52 129.76C121.18 129.92 120.81 129.99 120.4 129.99C119.86 129.99 119.38 129.88 118.96 129.64C118.54 129.4 118.21 129.07 117.97 128.64C117.73 128.21 117.61 127.72 117.61 127.17C117.61 126.62 117.73 126.13 117.97 125.7C118.21 125.27 118.54 124.95 118.96 124.71C119.39 124.48 119.87 124.35 120.4 124.35C120.79 124.35 121.16 124.42 121.49 124.57C121.83 124.72 122.1 124.94 122.32 125.23V124.4H123.32V124.42ZM121.43 128.89C121.71 128.73 121.93 128.5 122.09 128.2C122.25 127.91 122.33 127.57 122.33 127.18C122.33 126.8 122.25 126.46 122.09 126.17C121.93 125.87 121.71 125.65 121.43 125.49C121.14 125.33 120.83 125.24 120.48 125.24C120.13 125.24 119.81 125.33 119.53 125.49C119.25 125.64 119.03 125.87 118.86 126.17C118.7 126.46 118.62 126.8 118.62 127.18C118.62 127.57 118.7 127.9 118.86 128.2C119.02 128.5 119.25 128.73 119.53 128.89C119.81 129.05 120.13 129.13 120.48 129.13C120.83 129.13 121.15 129.05 121.43 128.89Z" fill="black"></path>
  <path d="M126.8 123.17C126.67 123.04 126.61 122.89 126.61 122.71C126.61 122.53 126.67 122.37 126.8 122.24C126.93 122.11 127.09 122.05 127.29 122.05C127.49 122.05 127.65 122.11 127.77 122.23C127.9 122.35 127.96 122.5 127.96 122.68C127.96 122.87 127.9 123.03 127.77 123.15C127.65 123.28 127.48 123.34 127.29 123.34C127.09 123.36 126.92 123.3 126.8 123.17ZM126.78 124.42H127.78V129.94H126.78V124.42Z" fill="black"></path>
  <path d="M99.54 90.98C94.83 90.98 89.97 90.43 85.08 89.29C84.73 89.22 84.52 88.87 84.6 88.52C84.68 88.17 85.03 87.96 85.38 88.03C104.86 92.57 123.87 87.62 133.79 75.43C137.45 70.93 139.35 64.29 141.54 56.6C143.17 50.88 144.85 44.96 147.51 39.05C147.65 38.72 148.03 38.58 148.36 38.72C148.68 38.87 148.83 39.25 148.68 39.57C146.07 45.4 144.4 51.27 142.78 56.95C140.55 64.77 138.63 71.53 134.8 76.24C127.06 85.73 114.04 90.98 99.54 90.98Z" fill="black"></path>
  <path d="M90.26 87.0301C88.66 87.0301 86.99 86.9801 85.25 86.8901C84.89 86.8701 84.62 86.5701 84.64 86.2201C84.66 85.8601 84.97 85.6001 85.32 85.6101C103.04 86.5801 113.21 82.5901 117.31 73.1001C122.84 60.3001 128.56 58.6501 130.76 58.5301L131.56 58.4901L131.43 59.2901C130.78 63.1201 128.57 75.3901 128.55 75.5201C128.51 75.7901 128.47 76.0801 128.45 76.3401C128.6 76.2101 128.8 76.0301 129.02 75.8201L129.17 75.6801C133.93 71.2801 135.99 64.1101 138.16 56.5301C139.63 51.4001 141.15 46.0901 143.6 41.5101C143.77 41.2001 144.15 41.0801 144.47 41.2501C144.78 41.4201 144.9 41.8101 144.73 42.1201C142.35 46.5701 140.85 51.8101 139.39 56.8801C137.17 64.6401 135.06 71.9801 130.04 76.6201L129.91 76.7501C129.17 77.4501 128.25 78.3301 127.52 77.8301C127.28 77.6701 126.93 77.4301 127.28 75.3001C127.31 75.1801 129.23 64.4801 130.01 59.9501C127.85 60.4401 123.16 62.8201 118.5 73.6201C114.57 82.7101 105.54 87.0301 90.26 87.0301Z" fill="black"></path>
  <path d="M85.22 84.4399C84.87 84.4399 84.59 84.1699 84.58 83.8199C84.56 83.4699 84.84 83.1699 85.19 83.1499C106.47 82.1299 113.39 70.9999 120.7 59.2199C126.46 49.9499 132.41 40.3599 145.94 36.5099C146.28 36.4099 146.64 36.6099 146.73 36.9499C146.83 37.2899 146.63 37.6499 146.29 37.7399C133.24 41.4599 127.68 50.4199 121.8 59.8999C114.63 71.4499 107.22 83.3899 85.26 84.4399C85.24 84.4399 85.23 84.4399 85.22 84.4399Z" fill="black"></path>
  <path d="M85.22 82.1499C84.89 82.1499 84.61 81.8999 84.58 81.5599C84.54 81.2099 84.81 80.8899 85.16 80.8599C102.85 79.1799 109.85 65.0499 110.9 60.2399C111.95 55.4599 113.34 54.9399 118.36 54.9399C118.71 54.9399 119 55.2299 119 55.5799C119 55.9399 118.71 56.2299 118.36 56.2299C113.76 56.2299 113.04 56.4899 112.16 60.5099C111.06 65.5599 103.74 80.3899 85.28 82.1399C85.26 82.1499 85.24 82.1499 85.22 82.1499Z" fill="black"></path>
  <path d="M87.85 76.63C85.54 76.63 83.13 76.08 80.7 74.77C77.45 73.04 75.91 68.9 76.78 64.21C77.71 59.22 81.1 54.32 86.32 50.41C92.75 45.6 101.51 42.49 112.34 41.17C144.59 37.25 145.82 31.81 145.73 30.76V30.64C145.73 30.29 146.02 30 146.38 30C146.73 30 147.02 30.29 147.02 30.65C147.24 33.47 143.05 38.74 112.51 42.46C89.59 45.25 79.63 56.05 78.06 64.45C77.29 68.57 78.57 72.18 81.31 73.64C90.01 78.27 98.41 72.57 102.95 66.29C105.87 62.25 106.64 58.76 105.67 57.84C104.43 56.65 101.88 58.33 99.4 59.96C96.48 61.88 93.46 63.87 91.69 61.59C89.97 59.37 92.42 57.21 94.79 55.13C97.16 53.06 99.6 50.91 98.58 48.68C98.43 48.36 98.57 47.98 98.89 47.82C99.21 47.67 99.6 47.81 99.75 48.14C101.17 51.24 98.24 53.82 95.64 56.1C93.21 58.24 91.79 59.63 92.7 60.8C93.66 62.05 95.69 60.85 98.68 58.89C101.57 56.98 104.56 55.01 106.55 56.91C108.48 58.76 106.57 63.45 103.98 67.04C100.4 72.02 94.5 76.63 87.85 76.63Z" fill="black"></path>
  <path d="M77.11 76.6401C77.11 77.6501 76.3 78.4701 75.29 78.4701C74.28 78.4701 73.47 77.6501 73.47 76.6401C73.47 75.6301 74.28 74.8101 75.29 74.8101C76.3 74.8201 77.11 75.6401 77.11 76.6401Z" fill="black"></path>
  <path d="M120.49 80.0201C119.71 79.3901 119.59 78.2401 120.22 77.4501C120.86 76.6701 122.01 76.5501 122.79 77.1901C123.57 77.8301 123.69 78.9801 123.05 79.7501C122.42 80.5401 121.27 80.6601 120.49 80.0201Z" fill="black"></path>
  <path d="M82.1 78.8901C82.1 79.9001 81.29 80.7201 80.27 80.7201C79.26 80.7201 78.44 79.9101 78.44 78.8901C78.44 77.8801 79.26 77.0601 80.27 77.0601C81.29 77.0701 82.1 77.8901 82.1 78.8901Z" fill="black"></path>
</svg>
