<?xml version="1.0" encoding="UTF-8"?>
<svg xmlns="http://www.w3.org/2000/svg" width="220" height="160" viewBox="0 0 220 160" fill="none">
  <rect width="220" height="160" fill="white"></rect>
  <path d="M184.885 69.9673H168.664V73.164C170.598 72.7542 172.861 72.7214 175.344 72.7214C175.344 78.2378 175.32 87.4017 174.902 89.3361H178.656C178.246 87.4017 178.213 78.246 178.213 72.7214C180.697 72.7214 182.959 72.746 184.893 73.164V69.9673H184.885Z" fill="#2B2B2B"></path>
  <path d="M147.549 89.3443H151.549C151.828 87.3853 155.328 80.0984 157.344 75.9591C159.385 80.0984 162.975 87.3853 163.246 89.3443H167.525C166.197 87.4099 161.508 78.0574 157.533 69.6394C153.566 78.0574 149.098 87.4099 147.549 89.3443Z" fill="#2B2B2B"></path>
  <path d="M135.959 84.787C135.959 86.4427 135.934 88.0738 135.656 89.3361H139.352C139.074 88.0656 139.049 86.4427 139.049 84.787V82.164C142.139 76.787 145.205 71.9017 146.828 69.9673H142.828C142.385 71.9263 139.516 76.5902 137.721 79.4345C135.869 76.5902 132.918 71.9263 132.451 69.9673H128.172C129.77 71.9017 132.861 76.7788 135.951 82.164V84.787H135.959Z" fill="#2B2B2B"></path>
  <path d="M121.943 89.3444C121.533 87.41 121.5 82.9182 121.5 79.6887C121.5 76.4592 121.525 71.91 121.943 69.9756H118.221C118.631 71.91 118.664 76.4592 118.664 79.6887C118.664 82.9182 118.639 87.4182 118.221 89.3444H121.943Z" fill="#2B2B2B"></path>
  <path d="M95.7869 89.3443C95.4017 87.5247 95.3443 80.1312 95.3443 75.0247C99.4017 79.8279 103.377 84.4591 106.385 89.3443H109.672C109.262 87.2214 109.205 82.9181 109.205 79.6558C109.205 76.4591 109.262 71.9017 109.672 69.9673H105.951C106.336 71.787 106.393 79.1804 106.393 84.287C102.336 79.4591 98.3607 74.7378 95.3525 69.9673H92.0656C92.4754 71.9017 92.5082 76.4263 92.5082 79.6558C92.5082 82.8853 92.4836 87.4099 92.0656 89.3443H95.7869Z" fill="#2B2B2B"></path>
  <path d="M45.5656 89.6722C51.3361 89.6722 55.6885 85.3361 55.6885 79.5738C55.6885 73.8607 51.4426 69.6394 45.7295 69.6394C39.9672 69.6394 35.6066 73.9755 35.6066 79.7378C35.6066 85.4509 39.8525 89.6722 45.5656 89.6722ZM45.3771 72.123C49.8197 72.123 52.5 75.7132 52.5 79.9837C52.5 84.3197 49.8771 87.1886 45.9344 87.1886C41.4918 87.1886 38.8115 83.5984 38.8115 79.3279C38.8033 74.9919 41.4262 72.123 45.3771 72.123Z" fill="#2B2B2B"></path>
  <path d="M79.6721 69.9673C79.0902 71.7624 75.8607 77.3034 73.4918 81.1394C71.0328 77.3034 67.7213 71.7542 67.1148 69.9673H63.2787C63.6885 71.9017 63.7213 76.4263 63.7213 79.6558C63.7213 82.8853 63.6967 87.4099 63.2787 89.3443H67C66.6148 87.4919 66.5574 79.3034 66.5574 75.1066C68.959 78.7788 71.2787 82.6394 72.877 85.5083H73.9016C75.4508 82.6148 77.8197 78.746 80.2213 75.0493C80.2213 79.2132 80.1639 87.4673 79.7787 89.3443H83.5C83.0902 87.4099 83.0574 82.8853 83.0574 79.6558C83.0574 76.4263 83.082 71.9017 83.5 69.9673H79.6721Z" fill="#2B2B2B"></path>
</svg>
