<?xml version="1.0" encoding="UTF-8"?>
<svg xmlns="http://www.w3.org/2000/svg" width="220" height="160" viewBox="0 0 220 160" fill="none">
  <rect width="220" height="160" fill="white"></rect>
  <g clip-path="url(#clip0_67_214)">
    <mask id="mask0_67_214" style="mask-type:luminance" maskUnits="userSpaceOnUse" x="55" y="60" width="110" height="40">
      <path d="M55 60H164.77V99.7295H55V60Z" fill="white"></path>
    </mask>
    <g mask="url(#mask0_67_214)">
      <path d="M109.818 70.3527C111.796 69.6302 113.163 68.2275 113.163 66.0067C113.163 62.5725 110.024 61.0991 106.04 61.0991H101.502V82.483H107.433C111.92 82.483 115.812 80.6649 115.812 76.5425C115.812 73.2826 113.38 71.0463 109.819 70.3534M107.151 81.2864H104.641V62.2957H106.288C109.238 62.2957 110.225 63.7294 110.225 65.8862C110.225 66.2451 110.465 69.773 107.566 70.4147C108.762 70.7019 109.871 71.2732 110.799 72.08C111.375 72.6008 111.827 73.2442 112.122 73.9629C112.417 74.6816 112.547 75.4572 112.502 76.2327C112.502 79.2245 110.855 81.2871 107.153 81.2871" fill="#2B2B2B"></path>
      <path d="M56.4895 81.7706C58.0223 82.4985 59.7004 82.8688 61.3971 82.8534C64.162 82.8534 69.0326 81.8608 69.0326 77.0111C69.0326 73.6125 66.5768 71.7022 62.5318 68.9601C60.6604 67.6309 58.111 66.2868 58.111 64.0997C58.111 62.2815 59.7945 61.192 62.1203 61.192C63.7555 61.2218 65.3499 61.7066 66.7249 62.592L65.5721 60.5826C64.4825 60.1658 63.3215 59.9681 62.1554 60.0008C59.0666 60.0008 55.4572 61.3072 55.4572 64.9872C55.4572 67.8982 57.7467 69.5426 61.548 72.2665C63.3116 73.521 66.0832 75.5081 66.0832 77.9491C66.0832 80.2386 64.2947 81.6635 61.4153 81.6635C59.046 81.5992 56.7749 80.7031 55 79.1323L56.4895 81.7706Z" fill="#2B2B2B"></path>
      <path d="M84.3205 82.8509C78.5967 82.8509 74.1584 78.2861 74.1584 71.7906C74.1584 65.4541 78.5994 60.7317 84.3205 60.7317C90.0415 60.7317 94.469 65.4541 94.469 71.792C94.469 78.2881 90.0422 82.8523 84.3205 82.8523M91.3304 71.792C91.3304 66.0009 88.521 61.9242 84.3198 61.9242C80.1186 61.9242 77.3105 66.0029 77.3105 71.792C77.3105 77.6127 80.1199 81.6597 84.3211 81.6597C88.5224 81.6597 91.3304 77.6127 91.3304 71.792Z" fill="#2B2B2B"></path>
      <path d="M158.901 76.2066H150.644L148.071 82.4832H146.847L155.809 60.6245L164.77 82.4832H161.474L158.901 76.2066ZM151.133 75.014H158.415L154.774 66.1166L151.133 75.014Z" fill="#2B2B2B"></path>
      <path d="M137.676 61.1045V69.8874H126.206V61.1045H123.068V82.4837H126.206V71.0793H137.676V82.4837H140.815V61.1045H137.676Z" fill="#2B2B2B"></path>
      <path d="M88.9997 99.7298H87.7303V93.231H90.8434C92.3174 93.231 93.0595 93.9434 93.0595 95.0747V95.4269C93.0645 95.8372 92.9259 96.2364 92.6677 96.5554C92.4094 96.8744 92.0478 97.0931 91.6454 97.1736L93.314 99.7325H91.908L90.3363 97.2827H88.9997V99.7298ZM88.9997 96.3043H90.5612C91.3902 96.3043 91.7908 95.9528 91.7908 95.3972V95.1333C91.7908 94.5474 91.4488 94.235 90.6097 94.235H88.9997V96.3043Z" fill="#2B2B2B"></path>
      <path d="M101.128 93.231V94.2848H97.4701V95.9339H100.32V96.9285H97.4701V98.6753H101.128V99.7298H96.2311V93.231H101.128Z" fill="#2B2B2B"></path>
      <path d="M107.747 98.3715H104.867L104.36 99.7284H103.08L105.628 93.1804H107.033L109.58 99.7284H108.254L107.747 98.3715ZM105.229 97.416H107.384L106.311 94.5669H106.291L105.229 97.416Z" fill="#2B2B2B"></path>
      <path d="M113.566 93.231V98.6281H116.815V99.7304H112.298V93.231H113.566Z" fill="#2B2B2B"></path>
      <path d="M123.813 93.231V94.3232H121.608V99.7304H120.339V94.3232H118.142V93.231H123.813Z" fill="#2B2B2B"></path>
      <path d="M127.248 93.231L128.966 96.1588L130.663 93.231H132.04L129.561 97.2423V99.7338H128.292V97.2423L125.824 93.231H127.248Z" fill="#2B2B2B"></path>
    </g>
  </g>
  <defs>
    <clipPath id="clip0_67_214">
      <rect width="110" height="40" fill="white" transform="translate(55 60)"></rect>
    </clipPath>
  </defs>
</svg>
