<svg width="220" height="160" viewBox="0 0 220 160" fill="none" xmlns="http://www.w3.org/2000/svg">
<rect width="220" height="160" fill="white"/>
<path d="M189.136 71.6941L189.203 71.5518H176.151C172.303 71.5518 169.026 72.2472 166.316 73.638C163.688 74.9585 161.635 77.0181 160.484 79.4889C159.726 81.0866 159.509 82.5378 159.836 83.8423C160.012 84.5038 160.365 85.1179 160.868 85.6322C161.37 86.1465 162.006 86.5455 162.721 86.7953C164.139 87.3364 166.504 87.6071 169.813 87.6071H181.605L182.781 85.0585H176.151C172.948 85.0585 170.817 84.694 169.757 83.9652C168.59 83.1793 168.721 81.3551 169.633 79.4371C171.215 76.0993 174.525 74.0196 179.105 74.0196H184.241L183.059 76.5262H186.973L189.25 71.6941H189.136ZM143.412 81.1804L151.354 74.3528L153.005 81.1804H143.412ZM75.8822 81.2063L83.6146 74.6697L85.0095 81.2063H75.8822ZM150.672 71.5356H145.836L127.226 86.9311L134.497 71.5518H126.523L116.887 78.221L111.926 81.8208H111.714L114.05 76.578L111.19 71.5518H103.18L95.8942 86.9603L91.6948 71.5518H82.908L63.5039 87.6071H68.3696L73.3268 83.4025H85.5441L86.5179 87.6071H99.5004L104.194 77.6809C104.432 77.1828 104.655 76.6103 104.879 75.9699C104.916 76.5399 105.075 77.0984 105.347 77.6162L109.477 85.8961H110.173L121.984 77.6485C122.688 77.1221 123.359 76.5617 123.994 75.9699C123.536 76.7171 123.217 77.2863 123.031 77.6809L118.337 87.6071H126.908H135.944L140.846 83.4025H153.535L154.553 87.6071H159.016L154.671 71.5356H150.672ZM65.6822 83.8423C67.1722 82.6224 68.3547 81.1391 69.153 79.4889C70.3392 76.979 70.2379 75.0287 68.8492 73.638C67.4604 72.2472 64.8389 71.5518 60.985 71.5518H47.9439L46.765 74.0649H55.7459C60.3259 74.0649 61.6549 76.0831 60.0734 79.421C59.1617 81.3616 58.3526 83.1308 56.4451 83.9232C54.7024 84.6477 52.8975 84.8611 49.694 84.8611H45.5386L48.6396 78.3601H44.7148L40.3214 87.6071H52.1433C55.4578 87.6071 58.0768 87.3364 60.0001 86.7953C62.1184 86.195 64.0593 85.1864 65.6822 83.8423Z" fill="#2B2B2B"/>
</svg>
