<?xml version="1.0" encoding="UTF-8"?>
<svg xmlns="http://www.w3.org/2000/svg" width="220" height="160" viewBox="0 0 220 160" fill="none">
  <rect width="220" height="160" fill="white"></rect>
  <g clip-path="url(#clip0_67_171)">
    <path d="M106.914 88.2966C106.914 86.2534 106.901 85.8664 106.886 85.4197C106.873 84.8489 106.678 84.627 106.275 84.5853C106.108 84.5716 105.913 84.5579 105.76 84.5442C105.551 84.5305 105.511 84.475 105.511 84.4046C105.511 84.2937 105.622 84.2656 105.789 84.2656C106.637 84.2656 107.332 84.3068 108.013 84.3068C108.931 84.3068 109.751 84.2656 110.293 84.2656C113.227 84.2656 113.782 85.6278 113.782 86.4061C113.782 87.5321 113.003 88.2549 112.087 88.7278C113.546 89.1727 114.783 90.0626 114.783 91.7444C114.783 93.2872 113.338 94.8164 110.571 94.8164C110.057 94.8164 108.417 94.7329 108 94.7329C107.388 94.7329 106.735 94.774 105.984 94.774C105.79 94.774 105.692 94.7329 105.692 94.6351C105.692 94.5372 105.761 94.4955 105.97 94.4955C106.11 94.4886 106.25 94.47 106.387 94.44C106.636 94.3983 106.79 94.1908 106.832 93.6754C106.887 92.9109 106.915 92.1045 106.915 90.3529L106.914 88.2966ZM109.319 90.6601C109.319 91.3269 109.305 92.3002 109.348 93.0093C109.375 93.4542 109.43 93.6325 109.709 93.7739C109.989 93.9289 110.306 94.0056 110.626 93.9957C111.349 93.9957 112.211 93.4972 112.211 92.1052C112.23 91.711 112.167 91.3172 112.026 90.9487C111.885 90.5803 111.668 90.2452 111.391 89.9647C111.036 89.6411 110.578 89.4536 110.098 89.4357C109.866 89.4216 109.634 89.4216 109.402 89.4357C109.347 89.4357 109.318 89.4637 109.318 89.5329L109.319 90.6601ZM109.319 88.4499C109.319 88.5615 109.375 88.5745 109.444 88.5889C109.734 88.6276 110.027 88.6463 110.32 88.645C110.615 88.6667 110.908 88.5883 111.153 88.4225C111.319 88.2476 111.446 88.0394 111.525 87.8117C111.604 87.5841 111.634 87.3422 111.613 87.1021C111.613 85.9761 111.057 85.0308 109.958 85.0308C109.789 85.0251 109.621 85.0485 109.46 85.1C109.376 85.128 109.32 85.1554 109.32 85.3492L109.319 88.4499Z" fill="#2B2B2B"></path>
    <path d="M116.535 88.2966C116.535 86.1425 116.535 85.7418 116.493 85.2944C116.465 84.905 116.312 84.6551 116.006 84.599C115.869 84.568 115.73 84.5494 115.589 84.5435C115.422 84.5435 115.325 84.4875 115.325 84.3903C115.325 84.3068 115.394 84.2656 115.631 84.2656C116.186 84.2656 117.549 84.3068 117.66 84.3068C117.785 84.3068 119.425 84.2656 119.926 84.2656C120.162 84.2656 120.232 84.3211 120.232 84.4046C120.232 84.5161 120.107 84.5442 119.968 84.5442C119.828 84.5579 119.745 84.5579 119.564 84.5853C119.202 84.6551 119.066 84.8345 119.036 85.333C118.995 85.7786 118.995 86.1394 118.995 88.2941V90.7443C118.995 91.8422 119.009 93.1352 119.064 93.7184C119.092 94.0805 119.175 94.3304 119.592 94.4276C119.794 94.4644 119.998 94.4875 120.204 94.4967C120.44 94.4967 120.495 94.5528 120.495 94.6363C120.495 94.7055 120.426 94.7753 120.204 94.7753C119.258 94.7753 117.773 94.7341 117.649 94.7341C117.58 94.7341 116.12 94.7753 115.647 94.7753C115.425 94.7753 115.313 94.7478 115.313 94.6363C115.313 94.5391 115.425 94.4967 115.592 94.4967C115.731 94.483 115.87 94.4693 116.023 94.4413C116.315 94.3995 116.412 94.0936 116.453 93.6935C116.509 93.1096 116.537 92.1083 116.537 90.7468L116.535 88.2966Z" fill="#2B2B2B"></path>
    <path d="M122.525 84.7243C122.539 84.3068 122.595 84.0569 122.762 84.0569C122.874 84.0569 122.943 84.0986 123.304 84.3903C123.888 84.8769 124.613 85.5742 127.795 88.491C129.212 89.7996 130.172 90.7293 130.547 91.0627L130.463 85.8496C130.435 85.0713 130.366 84.7099 129.81 84.6127C129.608 84.5759 129.404 84.5528 129.199 84.5435C129.018 84.5435 128.95 84.4744 128.95 84.404C128.95 84.3068 129.074 84.265 129.228 84.265C129.784 84.265 130.688 84.3061 131.244 84.3061C131.55 84.3061 132.244 84.265 132.828 84.265C133.037 84.265 133.134 84.3061 133.134 84.3896C133.134 84.4594 133.065 84.5429 132.898 84.5429C132.781 84.5447 132.664 84.5585 132.55 84.584C132.092 84.6401 131.952 84.8763 131.911 85.7381C131.799 88.5322 131.799 91.3126 131.744 94.1067C131.744 94.8158 131.647 94.9684 131.466 94.9684C131.244 94.9684 130.812 94.6351 129.908 93.8425C128.963 93.0087 127.74 91.9108 126.905 91.1462C126.127 90.4371 124.737 89.1304 123.722 88.1433L123.861 92.8835C123.889 93.8848 123.944 94.2599 124.334 94.3989C124.575 94.4568 124.822 94.4893 125.071 94.4961C125.28 94.5098 125.349 94.5522 125.349 94.6357C125.349 94.7472 125.237 94.7746 125.015 94.7746C124.529 94.7746 124.083 94.7472 123.221 94.7335C122.902 94.7335 121.873 94.7746 121.331 94.7746C121.136 94.7746 121.025 94.7472 121.025 94.6357C121.025 94.5522 121.094 94.4961 121.29 94.4961C121.414 94.4824 121.595 94.4824 121.748 94.455C122.29 94.3709 122.36 94.0238 122.401 92.7314C122.467 89.8675 122.442 86.517 122.525 84.7243Z" fill="#2B2B2B"></path>
    <path d="M144.012 93.4373C144.012 94.258 143.985 94.3415 143.734 94.4387C142.635 94.7968 141.485 94.975 140.329 94.9665C136.422 94.9665 133.712 93.2155 133.712 89.5173C133.678 88.6058 133.892 87.7022 134.333 86.9037C134.774 86.1053 135.424 85.4422 136.214 84.9859C137.435 84.3208 138.814 84.0035 140.202 84.0686C140.957 84.0739 141.71 84.1389 142.455 84.2631C142.927 84.3185 143.386 84.4157 143.789 84.4294C143.914 84.4294 143.942 84.4849 143.929 84.6101C143.792 85.4544 143.741 86.3104 143.776 87.165C143.776 87.3874 143.72 87.4572 143.623 87.4572C143.525 87.4572 143.47 87.3457 143.456 87.2347C143.44 86.9954 143.383 86.7605 143.289 86.54C143.025 85.5947 141.788 84.9273 139.856 84.9273C139.393 84.8983 138.929 84.9731 138.499 85.1463C138.068 85.3194 137.682 85.5865 137.368 85.9281C136.728 86.793 136.417 87.8576 136.492 88.9309C136.492 91.4184 137.687 94.0742 140.604 94.0742C140.874 94.0915 141.143 94.0337 141.382 93.9072C141.439 93.8632 141.483 93.8061 141.512 93.741C141.541 93.6758 141.554 93.6045 141.549 93.5333V92.6896C141.549 92.1194 141.549 91.5779 141.535 91.0632C141.535 90.2712 141.354 89.979 140.882 89.9092C140.701 89.8818 140.521 89.8681 140.284 89.84C140.173 89.84 140.062 89.7846 140.062 89.7011C140.062 89.6176 140.131 89.5615 140.354 89.5615C141.258 89.5615 142.328 89.6033 142.703 89.6033C143.202 89.6033 144.107 89.5615 144.858 89.5615C145.066 89.5615 145.177 89.5895 145.177 89.7011C145.177 89.7983 145.094 89.8257 144.955 89.84C144.899 89.84 144.719 89.8681 144.581 89.8818C144.247 89.951 144.094 90.1036 144.053 90.5903C144.025 91.0358 144.011 91.758 144.011 92.4391L144.012 93.4373Z" fill="#2B2B2B"></path>
    <path d="M153.701 88.5473C153.743 88.5473 153.785 88.5192 153.785 88.45V88.1578C153.785 86.0037 153.785 85.7669 153.757 85.322C153.729 84.9188 153.618 84.682 153.159 84.5848C153.047 84.5711 152.839 84.5574 152.672 84.5437C152.478 84.5437 152.408 84.4602 152.408 84.4041C152.408 84.3206 152.477 84.2651 152.686 84.2651C153.492 84.2651 154.742 84.3063 154.882 84.3063C155.007 84.3063 156.606 84.2651 157.204 84.2651C157.412 84.2651 157.482 84.3206 157.482 84.4041C157.482 84.4739 157.412 84.5437 157.273 84.5437C157.037 84.5711 156.954 84.5711 156.787 84.5991C156.425 84.6552 156.314 84.8914 156.272 85.3357C156.244 85.7812 156.244 86.142 156.244 88.2968V90.7444C156.244 92.0648 156.244 93.0936 156.314 93.6775C156.355 94.1361 156.466 94.3722 156.884 94.442C157.078 94.4701 157.356 94.4832 157.495 94.4975C157.662 94.4975 157.732 94.5667 157.732 94.6371C157.732 94.7343 157.62 94.776 157.454 94.776C156.495 94.776 155.091 94.7349 154.841 94.7349C154.619 94.7349 153.532 94.776 152.853 94.776C152.604 94.776 152.547 94.7069 152.547 94.6234C152.547 94.5542 152.631 94.4987 152.812 94.4987C152.956 94.488 153.1 94.4695 153.242 94.4433C153.576 94.3735 153.66 94.1093 153.701 93.665C153.757 93.0811 153.785 92.205 153.785 90.8846V89.7586C153.785 89.7475 153.783 89.7364 153.779 89.726C153.775 89.7157 153.769 89.7062 153.761 89.6984C153.753 89.6905 153.744 89.6844 153.734 89.6804C153.723 89.6764 153.712 89.6746 153.701 89.6751H149.364C149.353 89.6733 149.341 89.6742 149.33 89.6778C149.319 89.6813 149.309 89.6874 149.301 89.6956C149.293 89.7037 149.287 89.7137 149.283 89.7246C149.28 89.7356 149.279 89.7472 149.281 89.7586V91.2043C149.281 92.5247 149.295 93.0948 149.35 93.6924C149.391 94.0949 149.517 94.3598 149.934 94.4289C150.226 94.4707 150.364 94.4844 150.517 94.4981C150.67 94.4981 150.782 94.5399 150.782 94.6377C150.782 94.7069 150.713 94.7766 150.504 94.7766C149.711 94.7766 148.074 94.7355 147.932 94.7355C147.807 94.7355 146.347 94.7766 145.903 94.7766C145.75 94.7766 145.597 94.7492 145.597 94.652C145.597 94.5548 145.653 94.4987 145.833 94.4987C146 94.485 146.083 94.4713 146.265 94.4433C146.598 94.4015 146.723 94.0401 146.751 93.6226C146.792 93.0387 146.82 92.0648 146.82 90.7456V88.3267C146.82 86.1725 146.807 85.8522 146.779 85.4073C146.751 84.9207 146.598 84.6596 146.111 84.5867C145.945 84.5593 145.875 84.5593 145.722 84.5455C145.473 84.5318 145.444 84.462 145.444 84.3923C145.444 84.2957 145.597 84.2676 145.75 84.2676C146.556 84.2676 147.626 84.3088 147.946 84.3088C148.474 84.3088 149.642 84.2676 150.24 84.2676C150.489 84.2676 150.532 84.3231 150.532 84.4066C150.532 84.4764 150.448 84.5462 150.283 84.5462C150.12 84.5562 149.958 84.5747 149.797 84.6016C149.423 84.6851 149.352 85.0048 149.324 85.4079C149.283 85.8529 149.283 86.4224 149.283 88.1603V88.4525C149.283 88.5217 149.324 88.5497 149.367 88.5497L153.701 88.5473Z" fill="#2B2B2B"></path>
    <path d="M162.169 91.8971C162.1 91.8971 162.072 91.9251 162.045 91.9949L161.614 93.1346C161.496 93.4184 161.421 93.718 161.392 94.0238C161.392 94.288 161.516 94.4133 161.809 94.4413C161.962 94.4694 162.183 94.4824 162.295 94.4968C162.505 94.4968 162.544 94.5659 162.544 94.6364C162.544 94.7479 162.433 94.7753 162.252 94.7753C161.629 94.7753 161.154 94.7342 160.417 94.7342C160.264 94.7342 159.347 94.7753 158.652 94.7753C158.457 94.7753 158.374 94.7198 158.374 94.6364C158.374 94.5248 158.471 94.4968 158.638 94.4968C158.787 94.4869 158.936 94.4684 159.083 94.4413C159.57 94.3441 159.848 93.9129 160.142 93.2455L163.854 84.8489C164.118 84.2513 164.271 84.0432 164.424 84.0432C164.563 84.0432 164.688 84.2376 164.922 84.7386C165.284 85.5169 167.619 90.8415 168.564 92.9539C169.037 94.0381 169.342 94.3715 169.829 94.4419C169.975 94.4722 170.124 94.4907 170.274 94.4974C170.454 94.4974 170.538 94.5535 170.538 94.637C170.538 94.7342 170.441 94.7759 170.176 94.7759C168.814 94.7759 167.23 94.7485 166.34 94.7348C166.117 94.7348 166.034 94.6931 166.034 94.6102C166.034 94.5273 166.103 94.4712 166.228 94.4438C166.382 94.4158 166.437 94.3192 166.395 94.1946L165.464 91.985C165.457 91.9608 165.442 91.9396 165.422 91.9244C165.402 91.9092 165.378 91.9009 165.353 91.9008L162.169 91.8971ZM164.95 90.7854C165.033 90.7854 165.033 90.7443 165.019 90.7163L163.796 87.7415C163.754 87.6443 163.726 87.6723 163.698 87.7415L162.515 90.7163C162.501 90.7574 162.528 90.7854 162.571 90.7854H164.95Z" fill="#2B2B2B"></path>
    <path d="M174.805 90.7438C174.805 91.828 174.805 93.121 174.874 93.7049C174.902 94.0663 174.999 94.3579 175.416 94.4277C175.597 94.4557 175.764 94.4694 176.015 94.4969C176.236 94.5106 176.292 94.5529 176.292 94.6502C176.292 94.7337 176.223 94.7748 175.973 94.7748C175.027 94.7748 173.679 94.7337 173.457 94.7337C173.22 94.7337 171.872 94.7748 171.413 94.7748C171.192 94.7748 171.094 94.7474 171.094 94.6358C171.094 94.5386 171.205 94.4962 171.372 94.4962C171.511 94.4825 171.664 94.4688 171.817 94.4408C172.122 94.3847 172.22 94.0794 172.261 93.6762C172.317 93.0923 172.346 92.091 172.346 90.7432V85.2939C171.803 85.2939 170.941 85.2802 170.246 85.322C169.468 85.3631 169.162 85.5438 168.981 86.0305C168.933 86.1344 168.892 86.2411 168.857 86.3501C168.829 86.4617 168.788 86.5726 168.69 86.5726C168.566 86.5726 168.566 86.461 168.579 86.294C168.634 85.7239 168.788 84.9736 168.885 84.4452C168.912 84.2365 168.954 84.0981 169.037 84.0981C169.197 84.1257 169.355 84.1627 169.51 84.2091C170.022 84.2787 170.537 84.3112 171.053 84.3063H177.098C177.391 84.3101 177.684 84.2915 177.974 84.2508C178.116 84.214 178.26 84.1861 178.405 84.1673C178.529 84.1673 178.544 84.2508 178.544 84.5979C178.544 84.7923 178.46 86.0859 178.447 86.433C178.433 86.6274 178.391 86.7109 178.308 86.7109C178.196 86.7109 178.169 86.6274 178.155 86.4617C178.141 86.3084 178.141 86.2529 178.127 86.1831C178.071 85.7525 177.863 85.4192 177.043 85.3631C176.584 85.322 175.859 85.2939 174.805 85.2939V90.7438Z" fill="#2B2B2B"></path>
    <path d="M185.308 90.7438C185.308 91.828 185.308 93.121 185.377 93.7049C185.405 94.0663 185.502 94.3579 185.919 94.4277C186.1 94.4557 186.267 94.4694 186.517 94.4969C186.739 94.5106 186.795 94.5529 186.795 94.6502C186.795 94.7337 186.726 94.7748 186.476 94.7748C185.53 94.7748 184.182 94.7337 183.96 94.7337C183.723 94.7337 182.375 94.7748 181.916 94.7748C181.694 94.7748 181.597 94.7474 181.597 94.6358C181.597 94.5386 181.707 94.4962 181.874 94.4962C182.013 94.4825 182.167 94.4688 182.319 94.4408C182.625 94.3847 182.722 94.0794 182.764 93.6762C182.82 93.0923 182.848 92.091 182.848 90.7432V85.2939C182.306 85.2939 181.444 85.2802 180.749 85.322C179.971 85.3631 179.665 85.5438 179.484 86.0305C179.436 86.1343 179.394 86.2411 179.359 86.3501C179.332 86.4617 179.29 86.5726 179.193 86.5726C179.068 86.5726 179.068 86.461 179.082 86.294C179.137 85.7239 179.29 84.9736 179.387 84.4452C179.415 84.2365 179.457 84.0981 179.54 84.0981C179.7 84.1257 179.857 84.1627 180.013 84.2091C180.524 84.2787 181.039 84.3111 181.555 84.3063H187.6C187.893 84.3101 188.186 84.2916 188.476 84.2508C188.618 84.214 188.762 84.1861 188.907 84.1673C189.032 84.1673 189.046 84.2508 189.046 84.5979C189.046 84.7923 188.962 86.0859 188.949 86.433C188.935 86.6274 188.893 86.7109 188.81 86.7109C188.698 86.7109 188.67 86.6274 188.657 86.4617C188.643 86.3084 188.643 86.2529 188.628 86.1831C188.573 85.7525 188.364 85.4192 187.545 85.3631C187.086 85.322 186.361 85.2939 185.307 85.2939L185.308 90.7438Z" fill="#2B2B2B"></path>
    <path d="M190.798 88.2966C190.798 86.1425 190.798 85.7418 190.756 85.2944C190.729 84.905 190.576 84.6551 190.27 84.599C190.133 84.5679 189.993 84.5494 189.853 84.5435C189.686 84.5435 189.588 84.4875 189.588 84.3903C189.588 84.3068 189.658 84.2656 189.894 84.2656C190.45 84.2656 191.813 84.3068 191.924 84.3068C192.048 84.3068 193.689 84.2656 194.189 84.2656C194.426 84.2656 194.495 84.3211 194.495 84.4046C194.495 84.5161 194.371 84.5442 194.231 84.5442C194.091 84.5579 194.009 84.5579 193.828 84.5853C193.466 84.6551 193.329 84.8345 193.3 85.333C193.258 85.7786 193.258 86.1394 193.258 88.2941V90.7443C193.258 91.8422 193.272 93.1352 193.327 93.7184C193.355 94.0805 193.439 94.3304 193.856 94.4276C194.058 94.4644 194.262 94.4875 194.467 94.4967C194.704 94.4967 194.759 94.5528 194.759 94.6363C194.759 94.7055 194.69 94.7753 194.467 94.7753C193.522 94.7753 192.037 94.7341 191.912 94.7341C191.843 94.7341 190.383 94.7753 189.911 94.7753C189.688 94.7753 189.577 94.7478 189.577 94.6363C189.577 94.5391 189.688 94.4967 189.855 94.4967C189.994 94.483 190.133 94.4693 190.286 94.4413C190.578 94.3995 190.675 94.0936 190.717 93.6935C190.773 93.1096 190.801 92.1083 190.801 90.7468L190.798 88.2966Z" fill="#2B2B2B"></path>
    <path d="M122.157 75.3059H119.811C119.473 75.3243 119.134 75.2735 118.816 75.1567C118.498 75.04 118.208 74.8596 117.962 74.6266C117.728 74.3767 117.547 74.0817 117.43 73.7598C117.313 73.4378 117.263 73.0955 117.282 72.7535V69.2179H115.667C114.231 69.2179 113.513 70.1318 113.513 71.9597C113.513 73.3646 114.051 74.0827 115.128 74.1138H116.556V75.2354C116.574 76.186 116.235 77.1088 115.607 77.8227C114.956 78.5587 114.046 79.0156 113.066 79.0988H110.398C109.71 79.1456 109.02 79.0373 108.38 78.7821C107.739 78.5268 107.164 78.131 106.697 77.6239C105.869 76.5214 105.463 75.1595 105.55 73.7836V70.6679H108.074V73.735C108.006 74.8488 108.313 75.9534 108.946 76.8724C109.276 77.2585 109.685 77.5692 110.145 77.7834C110.431 77.9241 110.745 77.9969 111.064 77.9959C111.603 78.0045 112.138 77.8843 112.621 77.6451C112.947 77.488 113.23 77.2551 113.446 76.9659C113.774 76.5508 113.962 76.0421 113.982 75.5134C113.583 75.5225 113.186 75.4504 112.816 75.3016C112.446 75.1527 112.109 74.93 111.828 74.6472C111.521 74.3282 111.284 73.9493 111.131 73.5342C110.977 73.1191 110.912 72.6768 110.938 72.2351C110.894 71.1213 111.292 70.0352 112.047 69.2148C112.786 68.4346 114.297 68.0439 115.495 68.0439H119.53V72.3522C119.53 73.2886 119.944 73.757 120.771 73.7574H122.153L122.157 75.3059ZM111.077 81.724C111.079 81.8583 111.054 81.9915 111.004 82.116C110.954 82.2406 110.879 82.3539 110.785 82.4494C110.69 82.5488 110.576 82.6273 110.448 82.6797C110.321 82.732 110.185 82.7572 110.047 82.7535C109.91 82.7566 109.773 82.7325 109.644 82.6823C109.516 82.6321 109.399 82.557 109.3 82.4612C109.2 82.3665 109.122 82.2519 109.069 82.1249C109.017 81.998 108.992 81.8614 108.996 81.724C108.993 81.5853 109.018 81.4474 109.07 81.3188C109.123 81.1902 109.201 81.0736 109.3 80.9763C109.397 80.8773 109.514 80.7993 109.642 80.747C109.771 80.6947 109.909 80.6693 110.047 80.6722C110.183 80.6707 110.317 80.6969 110.442 80.7492C110.567 80.8015 110.679 80.8788 110.773 80.9763C110.872 81.0734 110.95 81.1897 111.002 81.3179C111.054 81.4462 111.08 81.5837 111.077 81.7222V81.724ZM113.84 81.724C113.842 81.8583 113.817 81.9916 113.767 82.1161C113.716 82.2406 113.642 82.3539 113.547 82.4494C113.453 82.5489 113.338 82.6274 113.211 82.6798C113.084 82.7322 112.947 82.7573 112.81 82.7535C112.672 82.7566 112.535 82.7324 112.407 82.6822C112.278 82.6321 112.161 82.557 112.062 82.4612C111.962 82.3665 111.884 82.2519 111.832 82.1249C111.779 81.9979 111.754 81.8614 111.758 81.724C111.755 81.5853 111.78 81.4474 111.833 81.3188C111.885 81.1902 111.963 81.0737 112.062 80.9763C112.159 80.8773 112.276 80.7993 112.404 80.747C112.533 80.6947 112.671 80.6693 112.81 80.6722C112.945 80.6707 113.079 80.6969 113.204 80.7492C113.329 80.8015 113.442 80.8788 113.536 80.9763C113.634 81.0734 113.712 81.1897 113.764 81.3179C113.817 81.4462 113.842 81.5837 113.84 81.7222L113.84 81.724Z" fill="#2B2B2B"></path>
    <path d="M139.612 75.3063H122.157V73.761H127.347V67.0636L127.09 64.9562L130.058 64.7693L129.871 67.0406V72.0044C130.428 71.0152 131.176 70.1467 132.072 69.4496C133.005 68.5787 134.215 68.0644 135.49 67.9971C136.542 67.9532 137.581 68.2487 138.453 68.8402C138.822 69.0953 139.122 69.439 139.324 69.8398C139.527 70.2406 139.625 70.6857 139.612 71.1345V75.3063ZM137.089 73.761V71.4193C137.089 70.1107 137.092 69.4951 135.394 69.4527C134.406 69.4278 133.298 70.0378 132.074 71.2087C131.24 71.8985 130.578 72.7733 130.142 73.7635L137.089 73.761Z" fill="#2B2B2B"></path>
    <path d="M146.869 75.3064H144.721C144.382 75.3246 144.044 75.2738 143.726 75.157C143.408 75.0403 143.117 74.86 142.87 74.6272C142.636 74.377 142.455 74.0816 142.338 73.7592C142.221 73.4368 142.171 73.094 142.191 72.7516V66.921L141.887 64.7202L144.715 64.2522V72.3528C144.715 73.2892 145.129 73.7576 145.956 73.758H146.87L146.869 75.3064Z" fill="#2B2B2B"></path>
    <path d="M159.066 75.3064H146.869V73.761H152.837C152.369 73.1341 152.129 72.3654 152.159 71.5832C152.122 70.6204 152.467 69.6821 153.118 68.9723C153.431 68.6378 153.814 68.3754 154.238 68.2032C154.663 68.0311 155.12 67.9533 155.577 67.9753C156.691 68.0373 157.753 68.4656 158.598 69.1935L157.942 69.9662C157.804 69.7798 157.627 69.625 157.425 69.5118C157.222 69.3987 156.997 69.3299 156.766 69.3101C155.377 69.3101 154.682 70.1141 154.682 71.7222C154.667 72.0064 154.711 72.2907 154.812 72.5568C154.913 72.8229 155.068 73.065 155.268 73.2675C155.436 73.4291 155.634 73.5557 155.851 73.6401C156.068 73.7245 156.3 73.7649 156.533 73.7592H157.422L158.832 73.5249L159.066 75.3064ZM156.373 65.3077C156.375 65.4427 156.349 65.5766 156.297 65.7013C156.245 65.8259 156.169 65.9388 156.072 66.033C155.976 66.1321 155.861 66.2103 155.733 66.2627C155.606 66.3151 155.469 66.3407 155.331 66.3377C155.059 66.3404 154.797 66.2354 154.601 66.0455C154.5 65.9519 154.419 65.8376 154.366 65.7104C154.312 65.5831 154.286 65.4458 154.29 65.3077C154.287 65.1683 154.313 65.0298 154.367 64.901C154.421 64.7723 154.5 64.6561 154.601 64.56C154.696 64.4629 154.81 64.386 154.935 64.3337C155.061 64.2815 155.195 64.255 155.331 64.2559C155.467 64.2552 155.601 64.2818 155.726 64.334C155.852 64.3862 155.965 64.4631 156.06 64.56C156.161 64.656 156.242 64.7721 156.295 64.9009C156.349 65.0296 156.376 65.1682 156.373 65.3077Z" fill="#2B2B2B"></path>
    <path d="M189.429 75.3064H173.301C172.986 75.3077 172.671 75.2683 172.366 75.1892C172.193 76.3141 171.599 77.3311 170.704 78.0344C169.708 78.7623 168.494 79.1297 167.262 79.0763C165.638 79.0763 163.591 78.5778 162.748 77.5808C161.925 76.4579 161.519 75.083 161.601 73.6931V70.5775H164.125V73.6451C164.125 74.988 164.349 76.1065 165.008 76.8293C165.254 77.1904 165.585 77.4858 165.971 77.6899C166.357 77.894 166.788 78.0005 167.225 78.0001C167.608 78.0199 167.99 77.9344 168.328 77.7528C168.666 77.5712 168.948 77.3006 169.143 76.9701C169.728 76.015 170.005 74.9032 169.937 73.7853V70.8118L169.632 68.5405L172.461 68.0725V72.0512C172.461 73.1907 172.875 73.7604 173.702 73.7604H189.432L189.429 75.3064ZM167.887 70.6236C167.889 70.7588 167.862 70.893 167.81 71.0177C167.758 71.1425 167.681 71.2552 167.583 71.3489C167.486 71.4481 167.369 71.5262 167.241 71.5787C167.112 71.6311 166.974 71.6566 166.835 71.6536C166.701 71.6554 166.568 71.6306 166.443 71.5804C166.319 71.5302 166.205 71.4558 166.11 71.3614C166.009 71.2629 165.93 71.1443 165.877 71.0132C165.825 70.8822 165.801 70.7416 165.806 70.6005C165.804 70.4652 165.83 70.3309 165.883 70.2061C165.935 70.0812 166.012 69.9684 166.11 69.8746C166.204 69.7771 166.316 69.6998 166.441 69.6475C166.566 69.5952 166.7 69.569 166.835 69.5705C166.974 69.5676 167.112 69.593 167.241 69.6453C167.369 69.6976 167.486 69.7756 167.583 69.8746C167.682 69.972 167.76 70.0887 167.812 70.2174C167.865 70.346 167.89 70.4847 167.887 70.6236Z" fill="#2B2B2B"></path>
    <path d="M194.581 72.8127C194.598 73.1456 194.546 73.4785 194.429 73.7907C194.312 74.1028 194.132 74.3876 193.901 74.6273C193.653 74.8565 193.361 75.0337 193.044 75.1483C192.726 75.2629 192.389 75.3127 192.051 75.2946H189.429V73.7493H190.8C191.637 73.7493 192.056 73.2965 192.056 72.3909V70.7084L191.775 68.5075L194.579 68.062L194.581 72.8127ZM193.667 78.0576C193.666 78.1909 193.639 78.3228 193.587 78.4455C193.535 78.5682 193.459 78.6793 193.363 78.7723C193.267 78.8743 193.151 78.9551 193.023 79.0095C192.894 79.0639 192.755 79.0908 192.615 79.0882C192.481 79.0901 192.348 79.0652 192.223 79.015C192.099 78.9648 191.985 78.8904 191.89 78.796C191.789 78.6976 191.709 78.579 191.657 78.448C191.604 78.3169 191.58 78.1762 191.585 78.0351C191.584 77.8997 191.61 77.7654 191.662 77.6406C191.715 77.5157 191.792 77.4029 191.89 77.3092C191.984 77.2117 192.096 77.1344 192.221 77.0821C192.346 77.0298 192.48 77.0036 192.615 77.0051C192.754 77.0022 192.892 77.0276 193.021 77.0799C193.149 77.1322 193.266 77.2102 193.363 77.3092C193.462 77.4066 193.54 77.5233 193.592 77.652C193.645 77.7807 193.67 77.9187 193.667 78.0576Z" fill="#2B2B2B"></path>
    <path d="M79.845 81.0752C77.388 78.7373 74.2937 77.1792 70.9524 76.5974L62.939 68.9953C59.7322 65.9538 55.4807 64.2587 51.061 64.2595H34.1001L34.8024 65.1693C35.449 66.0061 36.2789 66.6835 37.2282 67.1496C38.1774 67.6157 39.2209 67.8581 40.2784 67.8581H49.8577C54.1312 67.8511 58.243 69.4915 61.3382 72.438L65.4508 76.3419H43.4738L45.0939 78.4331C45.4576 78.9024 45.9239 79.2823 46.457 79.5437C46.9901 79.8051 47.576 79.941 48.1697 79.9411H66.7644C67.7024 79.9407 68.6388 80.0201 69.5634 80.1785C72.0555 80.6048 74.4185 81.5901 76.4752 83.0605C77.098 83.5061 77.6892 83.9941 78.2448 84.5211L85.47 91.3755H56.3077C53.5318 91.3784 50.7985 90.6931 48.3524 89.3807C45.9063 88.0684 43.8237 86.17 42.2911 83.8556L31.6002 67.7901C30.8765 66.7025 29.8952 65.8105 28.7436 65.1936C27.592 64.5766 26.3058 64.2539 24.9994 64.2539L30.3439 72.3545C30.3981 72.443 30.4486 72.5334 30.5066 72.62L40.1905 87.1943C41.7763 89.5873 43.9306 91.55 46.4606 92.9067C48.9906 94.2633 51.8174 94.9717 54.6882 94.9684H94.4954L79.845 81.0752Z" fill="#2B2B2B"></path>
    <path d="M100.729 61H99.8293V98.2237H100.729V61Z" fill="#2B2B2B"></path>
  </g>
  <defs>
    <clipPath id="clip0_67_171">
      <rect width="169.76" height="37.2237" fill="white" transform="translate(25 61)"></rect>
    </clipPath>
  </defs>
</svg>
