<svg width="220" height="160" viewBox="0 0 220 160" fill="none" xmlns="http://www.w3.org/2000/svg">
<rect width="220" height="160" fill="white"/>
<g clip-path="url(#clip0_400_47)">
<mask id="mask0_400_47" style="mask-type:luminance" maskUnits="userSpaceOnUse" x="39" y="69" width="142" height="22">
<path d="M180.187 69H39V90.236H180.187V69Z" fill="white"/>
</mask>
<g mask="url(#mask0_400_47)">
<path d="M61.749 69L63.91 74.986C59.9748 76.6726 55.7374 77.5403 51.456 77.536C47.1737 77.5407 42.9354 76.6723 39 74.984L41.161 69C44.4014 70.4482 47.9117 71.1938 51.461 71.188C55.0063 71.1927 58.5124 70.447 61.749 69ZM51.456 83.888C47.9084 83.8931 44.3999 83.1475 41.161 81.7L39 87.684C42.9354 89.3723 47.1737 90.2407 51.456 90.236C55.7373 90.2401 59.9746 89.3729 63.91 87.687L61.749 81.7C58.5109 83.1477 55.003 83.8934 51.456 83.888ZM158.807 79.222C158.831 80.6981 158.554 82.1636 157.991 83.5287C157.429 84.8938 156.594 86.1297 155.538 87.1609C154.481 88.192 153.226 88.9966 151.847 89.5254C150.469 90.0541 148.997 90.296 147.522 90.236H140.454V69H147.977C155.137 69 158.807 74 158.807 79.222ZM153.907 79.222C153.907 76.188 152.107 73.502 148.075 73.502H145.3V85.734H147.473C151.823 85.734 153.907 82.509 153.907 79.222ZM116.342 90.236L111.642 81.336C112.68 80.8097 113.546 79.9973 114.138 78.9947C114.729 77.9922 115.021 76.8413 114.98 75.678C114.98 72.352 112.65 69 107.02 69H98.537V90.236H103.381V82.328H106.859L110.922 90.236H116.342ZM103.381 78.191V73.5H106C108.488 73.5 109.876 73.972 109.876 75.8C109.876 77.843 108.276 78.183 106 78.183L103.381 78.191ZM88.847 69H82.876L75.309 90.236H80.284L81.709 86.029H90.014L91.439 90.236H96.414L88.847 69ZM83.175 81.7L85.862 73.766L88.548 81.7H83.175ZM130.611 69H124.64L117.073 90.236H122.048L123.473 86.029H131.778L133.2 90.236H138.175L130.611 69ZM124.939 81.7L127.625 73.766L130.312 81.7H124.939ZM172.62 69H166.649L159.082 90.236H164.057L165.482 86.029H173.787L175.212 90.236H180.187L172.62 69ZM166.948 81.7L169.635 73.766L172.321 81.7H166.948Z" fill="black"/>
</g>
</g>
<defs>
<clipPath id="clip0_400_47">
<rect width="141.187" height="21.236" fill="white" transform="translate(39 69)"/>
</clipPath>
</defs>
</svg>
