<svg width="220" height="160" viewBox="0 0 220 160" fill="none" xmlns="http://www.w3.org/2000/svg">
<g clip-path="url(#clip0_67_166)">
<rect width="220" height="160" fill="white"/>
<g clip-path="url(#clip1_67_166)">
<path d="M41.0852 67.4595V82.9541H51.2679V80.9633H43.344V76.3118H49.5419V74.321H43.344V69.4503H51.2679V67.4595H41.0852Z" fill="#2B2B2B"/>
<path d="M57.0244 67.4595V82.9541H65.2131V80.9633H59.3044V67.4595H57.0244Z" fill="#2B2B2B"/>
<path d="M70.9696 67.4595V82.9541H79.1614V80.9633H73.2496V67.4595H70.9696Z" fill="#2B2B2B"/>
<path d="M87.1948 67.4595H84.9178V82.9541H87.1948V67.4595Z" fill="#2B2B2B"/>
<path d="M119.807 67.2405C113.895 67.2405 112.148 71.9528 112.148 75.1857C112.148 78.5068 113.895 83.1583 119.807 83.1583C122.285 83.1583 124.035 82.3151 125.359 80.9848V75.4323H119.828V77.4231H123.079V80.102C122.121 80.7724 120.975 81.1209 119.807 81.0974C115.134 81.0974 114.446 76.6712 114.446 75.1857C114.446 73.7001 115.134 69.2527 119.807 69.2527C121.289 69.2641 122.709 69.8526 123.764 70.8934L125.183 69.4323C123.852 67.968 122.412 67.2405 119.804 67.2405" fill="#2B2B2B"/>
<path d="M129.679 67.4595V69.4503H134.172V82.9541H136.455V69.4503H140.991V67.4595H129.679Z" fill="#2B2B2B"/>
<path d="M152.084 67.2405C146.172 67.2405 144.425 71.9528 144.425 75.1857C144.425 78.5068 146.172 83.1583 152.084 83.1583C157.995 83.1583 159.743 78.5068 159.743 75.1857C159.743 71.9528 157.992 67.2405 152.084 67.2405ZM152.084 81.14C147.411 81.14 146.723 76.6712 146.723 75.1857C146.723 73.7001 147.411 69.2527 152.084 69.2527C156.756 69.2527 157.417 73.7062 157.417 75.1857C157.417 76.6651 156.763 81.14 152.084 81.14Z" fill="#2B2B2B"/>
<path d="M106.142 83.0761L106.391 82.9574V67.4596H104.099V77.758L92.6986 66.3577V69.0974C92.6849 69.2708 92.7112 69.445 92.7756 69.6065C92.84 69.768 92.9407 69.9126 93.07 70.0289L93.828 70.7869V82.9635H96.1111V73.0517L106.142 83.0761Z" fill="#2B2B2B"/>
<path d="M177.801 83.0759L178.05 82.9572V67.4595H175.767V77.7578L165.721 67.7121L165.499 67.8187V82.9602H167.782V73.0516L177.801 83.0759Z" fill="#2B2B2B"/>
<path d="M96.6408 89.8341C96.4648 89.7225 96.2698 89.644 96.0655 89.6027C95.8734 89.5614 95.6775 89.54 95.481 89.5388H93.8828V94.8996H94.5921V92.4642H95.5906C95.7965 92.465 96.0016 92.4363 96.1994 92.379C96.3921 92.3267 96.573 92.2379 96.7321 92.1172C96.8892 91.9954 97.0163 91.8392 97.1035 91.6606C97.2013 91.4566 97.2493 91.2323 97.2435 91.0061C97.252 90.7547 97.1931 90.5057 97.0731 90.2846C96.9671 90.0984 96.8165 89.9415 96.6347 89.828M96.5373 91.0061C96.542 91.1359 96.5138 91.2647 96.4551 91.3805C96.4054 91.4764 96.3334 91.5589 96.2451 91.621C96.1532 91.6849 96.0498 91.7304 95.9406 91.755C95.8182 91.7855 95.6924 91.8008 95.5662 91.8006H94.5921V90.1964H95.5388C95.6662 90.1961 95.7931 90.2124 95.9163 90.2451C96.0317 90.2727 96.141 90.3212 96.239 90.3881C96.33 90.4558 96.4057 90.5419 96.4612 90.6408C96.5192 90.7536 96.5475 90.8793 96.5434 91.0061" fill="#2B2B2B"/>
<path d="M105.317 92.3332C105.484 92.2827 105.64 92.2012 105.776 92.0928C105.923 91.979 106.042 91.8346 106.126 91.6696C106.227 91.4623 106.275 91.2333 106.266 91.003C106.272 90.7938 106.231 90.586 106.148 90.3941C106.074 90.2348 105.971 90.0911 105.843 89.971C105.721 89.862 105.581 89.7754 105.429 89.7153C105.288 89.6624 105.142 89.6217 104.994 89.5935C104.864 89.5705 104.733 89.5553 104.601 89.5479H104.321H102.881V94.8995H103.591V92.4641H104.303L105.752 94.8995H106.534L105.012 92.3972C105.115 92.3775 105.217 92.3521 105.317 92.3211M105.518 91.2495C105.49 91.345 105.439 91.4319 105.368 91.5022C105.275 91.594 105.163 91.6646 105.04 91.7092C104.856 91.7729 104.662 91.8018 104.467 91.7944H103.554V90.1902H104.467C104.662 90.1828 104.856 90.2117 105.04 90.2754C105.162 90.3208 105.274 90.3913 105.368 90.4824C105.438 90.5532 105.489 90.6399 105.518 90.7351C105.574 90.9018 105.574 91.0827 105.518 91.2495Z" fill="#2B2B2B"/>
<path d="M116.428 90.2085C116.179 89.9543 115.881 89.7543 115.551 89.621C114.829 89.337 114.026 89.337 113.304 89.621C112.975 89.7551 112.677 89.955 112.428 90.2085C112.182 90.4663 111.989 90.7692 111.858 91.1004C111.586 91.8267 111.586 92.6268 111.858 93.3531C111.987 93.6862 112.181 93.9904 112.428 94.248C112.676 94.5024 112.975 94.7025 113.304 94.8356C114.028 95.1116 114.828 95.1116 115.551 94.8356C115.881 94.7025 116.179 94.5024 116.428 94.248C116.676 93.9912 116.87 93.6868 116.997 93.3531C117.136 92.9941 117.206 92.6118 117.201 92.2267C117.204 91.8418 117.135 91.4598 116.997 91.1004C116.869 90.768 116.675 90.4647 116.428 90.2085ZM114.428 90.0715C114.722 90.0669 115.014 90.1228 115.286 90.2359C115.532 90.3391 115.753 90.4938 115.935 90.6894C116.118 90.886 116.259 91.1181 116.349 91.3713C116.543 91.9239 116.543 92.5265 116.349 93.0791C116.259 93.3323 116.118 93.5644 115.935 93.761C115.753 93.9566 115.532 94.1113 115.286 94.2146C114.734 94.4337 114.119 94.4337 113.566 94.2146C113.321 94.1098 113.1 93.9553 112.918 93.761C112.737 93.5635 112.597 93.3316 112.507 93.0791C112.312 92.5265 112.312 91.9239 112.507 91.3713C112.597 91.1188 112.737 90.887 112.918 90.6894C113.1 90.4951 113.321 90.3407 113.566 90.2359C113.839 90.1231 114.132 90.0672 114.428 90.0715Z" fill="#2B2B2B"/>
<path d="M125.621 89.8341C125.444 89.7225 125.248 89.6441 125.043 89.6027C124.851 89.5613 124.655 89.5398 124.458 89.5388H122.86V94.8996H123.581V92.4642H124.58C124.786 92.465 124.991 92.4363 125.189 92.379C125.381 92.3267 125.562 92.2379 125.721 92.1172C125.879 91.9947 126.007 91.8387 126.096 91.6606C126.191 91.4558 126.238 91.2319 126.233 91.0061C126.241 90.7547 126.182 90.5057 126.062 90.2846C125.958 90.0985 125.808 89.9416 125.627 89.828M125.527 91.0061C125.53 91.1354 125.503 91.2638 125.448 91.3805C125.397 91.4766 125.324 91.5591 125.234 91.621C125.143 91.6849 125.039 91.7304 124.93 91.755C124.808 91.7855 124.682 91.8008 124.556 91.8006H123.581V90.1964H124.528C124.657 90.1962 124.784 90.2126 124.909 90.2451C125.023 90.2733 125.131 90.3218 125.228 90.3881C125.319 90.4558 125.395 90.5419 125.451 90.6408C125.509 90.7536 125.537 90.8793 125.533 91.0061" fill="#2B2B2B"/>
<path d="M132.553 92.4703H135.052V91.8067H132.553V90.2024H135.219V89.5388H131.843V94.9117H135.335V94.2481H132.553V92.4703Z" fill="#2B2B2B"/>
<path d="M143.423 92.3333C143.591 92.2821 143.748 92.2006 143.886 92.0928C144.032 91.979 144.152 91.8346 144.236 91.6696C144.337 91.4623 144.385 91.2333 144.376 91.003C144.381 90.7939 144.34 90.5862 144.257 90.3941C144.183 90.2362 144.08 90.0937 143.953 89.974C143.83 89.8644 143.689 89.7777 143.536 89.7183C143.271 89.6219 142.993 89.5665 142.711 89.554H142.428H140.964V94.8995H141.67V92.4642H142.385L143.831 94.8995H144.644L143.122 92.4002C143.225 92.3792 143.326 92.3528 143.426 92.3211M143.63 91.2495C143.601 91.345 143.549 91.4317 143.478 91.5022C143.385 91.5927 143.274 91.6631 143.152 91.7092C142.968 91.7715 142.774 91.8004 142.58 91.7944H141.667V90.1902H142.58C142.774 90.1843 142.968 90.2131 143.152 90.2754C143.274 90.3215 143.385 90.3919 143.478 90.4824C143.548 90.552 143.6 90.6377 143.63 90.732C143.656 90.816 143.67 90.903 143.673 90.9908C143.671 91.0786 143.656 91.1657 143.63 91.2495Z" fill="#2B2B2B"/>
<path d="M149.469 90.2024H151.228V94.9117H151.935V90.2024H153.694V89.5388H149.469V90.2024Z" fill="#2B2B2B"/>
<path d="M159.776 89.5388H159.07V94.9117H159.776V89.5388Z" fill="#2B2B2B"/>
<path d="M166.479 92.4703H168.979V91.8067H166.479V90.2024H169.146V89.5388H165.77V94.9117H169.262V94.2481H166.479V92.4703Z" fill="#2B2B2B"/>
<path d="M177.852 92.6651C177.714 92.4728 177.533 92.3154 177.323 92.2055C177.113 92.096 176.891 92.0112 176.662 91.9528C176.449 91.8981 176.239 91.8289 176.035 91.7458C175.864 91.6785 175.711 91.5746 175.584 91.4414C175.465 91.2976 175.405 91.1135 175.417 90.9269C175.413 90.7963 175.442 90.6667 175.499 90.5494C175.552 90.4459 175.626 90.3554 175.718 90.2846C175.818 90.2111 175.931 90.1564 176.05 90.1233C176.358 90.028 176.69 90.0474 176.985 90.1781C177.139 90.2632 177.271 90.383 177.371 90.5281L177.438 90.6195L178.047 90.1872L177.977 90.0959C177.807 89.8592 177.576 89.6738 177.307 89.5601C176.834 89.3742 176.312 89.3527 175.825 89.4992C175.622 89.5604 175.431 89.6573 175.262 89.7854C175.097 89.9158 174.962 90.0797 174.866 90.2663C174.765 90.477 174.716 90.7087 174.723 90.9421C174.717 91.1677 174.76 91.3919 174.848 91.5997C174.923 91.7715 175.035 91.9244 175.177 92.0472C175.312 92.1665 175.467 92.2632 175.633 92.3333C175.791 92.4003 175.959 92.4642 176.129 92.519C176.3 92.5738 176.458 92.6225 176.613 92.6773C176.754 92.7247 176.89 92.7859 177.018 92.8599C177.124 92.9218 177.215 93.0072 177.283 93.1096C177.35 93.226 177.383 93.3589 177.377 93.4931C177.379 93.6193 177.352 93.7442 177.298 93.8584C177.246 93.966 177.171 94.0614 177.079 94.1385C176.981 94.2199 176.869 94.2819 176.747 94.3211C176.614 94.3672 176.474 94.3899 176.333 94.3881C176.113 94.3921 175.896 94.3419 175.7 94.242C175.513 94.1398 175.359 93.9868 175.256 93.8006L175.195 93.694L174.537 94.1324L174.607 94.2268C174.804 94.5085 175.074 94.7299 175.39 94.866C175.701 94.9912 176.034 95.0542 176.37 95.0517C176.587 95.0523 176.803 95.0184 177.009 94.9513C177.211 94.8858 177.398 94.7825 177.56 94.6469C177.72 94.5111 177.85 94.3431 177.941 94.1537C178.038 93.9452 178.087 93.7172 178.084 93.487C178.099 93.1977 178.023 92.911 177.865 92.6682" fill="#2B2B2B"/>
</g>
</g>
<defs>
<clipPath id="clip0_67_166">
<rect width="220" height="160" fill="white"/>
</clipPath>
<clipPath id="clip1_67_166">
<rect width="200" height="38.0518" fill="white" transform="translate(41 57)"/>
</clipPath>
</defs>
</svg>
